<svg width="273" height="37" viewBox="0 0 273 37" fill="none" xmlns="http://www.w3.org/2000/svg">
<path d="M61.6623 14.6748H55.284V9.4216C55.284 8.02419 54.0553 7.32548 51.572 7.32548C49.0886 7.32548 47.86 8.02419 47.86 9.4216V28.3125C47.86 29.71 49.0886 30.4087 51.572 30.4087C54.0292 30.4087 55.284 29.71 55.284 28.3125V23.0593H61.6623V28.3125C61.6623 31.0556 60.7735 33.0482 58.9698 34.2904C57.1661 35.5584 54.7089 36.1795 51.572 36.1795C48.4351 36.1795 45.9779 35.5584 44.2003 34.2904C42.3966 33.0223 41.5078 31.0297 41.5078 28.3125V9.4216C41.5078 6.67853 42.3966 4.68593 44.2003 3.44378C46.004 2.17576 48.4612 1.55469 51.572 1.55469C54.7089 1.55469 57.1661 2.17576 58.9698 3.44378C60.7474 4.68593 61.6623 6.67853 61.6623 9.4216V14.6748Z" fill="white"/>
<path d="M67.7539 7.84355V2.04688H79.4127V7.84355H76.7724V29.8916H79.4127V35.6624H67.7539V29.8916H70.3941V7.84355H67.7539Z" fill="white"/>
<path d="M95.8546 2.04688C97.7106 2.04688 99.3313 2.27978 100.717 2.77146C102.102 3.26314 103.226 4.06536 104.115 5.17811C104.978 6.31675 105.422 7.71416 105.422 9.42211V17.8325C105.422 19.5145 104.978 20.9378 104.115 22.0506C103.252 23.1633 102.102 23.9655 100.717 24.4572C99.3313 24.9489 97.7106 25.1818 95.8546 25.1818H92.6654V35.6883H86.2871V2.04688H95.8546ZM99.0438 17.289V9.91379C99.0438 9.16333 98.7824 8.61989 98.2857 8.30935C97.7629 7.99882 96.9786 7.84355 95.8546 7.84355H92.6654V19.3851H95.8546C96.9525 19.3851 97.7367 19.2299 98.2595 18.9193C98.7824 18.6088 99.0438 18.0654 99.0438 17.289Z" fill="white"/>
<path d="M130.883 17.8325C130.883 18.6088 130.778 19.3075 130.569 19.9027C130.36 20.4979 130.073 20.9378 129.759 21.2225C129.445 21.5071 129.132 21.74 128.818 21.9212C128.504 22.1023 128.243 22.2058 128.034 22.2317L127.694 22.2835C127.772 22.2835 127.903 22.3094 128.034 22.3352C128.191 22.3611 128.426 22.4646 128.792 22.6458C129.158 22.8269 129.471 23.0598 129.759 23.3445C130.047 23.6291 130.282 24.0691 130.517 24.6642C130.752 25.2594 130.857 25.9582 130.857 26.7345V35.6624H124.479V27.2521C124.479 26.4757 124.217 25.9323 123.694 25.6217C123.172 25.3112 122.361 25.1559 121.289 25.1559H118.126V35.6624H111.748V2.04688H121.316C123.172 2.04688 124.792 2.27978 126.178 2.77146C127.563 3.26314 128.687 4.06536 129.576 5.17811C130.439 6.31675 130.883 7.71416 130.883 9.42211V17.8325ZM124.505 17.289V9.91379C124.505 9.16333 124.243 8.61989 123.747 8.30935C123.224 7.99882 122.44 7.84355 121.316 7.84355H118.126V19.3851H121.316C122.413 19.3851 123.198 19.2299 123.72 18.9193C124.243 18.6088 124.505 18.0654 124.505 17.289Z" fill="white"/>
<path d="M147.3 7.84355C144.816 7.84355 143.588 8.54225 143.588 9.91379V15.9692H154.201V21.74H143.614V27.7955C143.614 29.1929 144.843 29.8916 147.326 29.8916H155.273V35.6624H147.326C144.189 35.6624 141.732 35.0413 139.954 33.7733C138.15 32.5053 137.262 30.5127 137.262 27.7955V9.91379C137.262 7.17072 138.15 5.17811 139.954 3.93597C141.758 2.66795 144.215 2.04688 147.326 2.04688H155.273V7.84355H147.3Z" fill="white"/>
<path d="M171.452 15.7104C171.897 15.9433 172.472 16.228 173.23 16.5644C173.988 16.9267 174.589 17.1855 175.06 17.4184C175.53 17.6254 176.079 17.9101 176.733 18.2724C177.386 18.6347 177.909 18.9452 178.301 19.2557C178.693 19.5404 179.138 19.9027 179.582 20.3685C180.053 20.8084 180.393 21.2483 180.654 21.7141C180.915 22.1541 181.124 22.6716 181.281 23.2668C181.464 23.862 181.543 24.509 181.543 25.1559V28.313C181.543 31.0561 180.654 33.0487 178.85 34.2909C177.046 35.5589 174.589 36.1799 171.452 36.1799C168.316 36.1799 165.858 35.5589 164.055 34.2909C162.251 33.0228 161.336 31.0302 161.336 28.313V24.6384H167.714V28.313C167.714 29.7104 168.969 30.4091 171.452 30.4091C173.91 30.4091 175.164 29.7104 175.164 28.313V25.1559C175.164 24.5607 174.929 24.069 174.432 23.7067C173.936 23.3445 172.969 22.7751 171.452 22.0247C171.086 21.8435 170.564 21.5847 169.858 21.2483C169.152 20.9119 168.577 20.6531 168.159 20.4461C167.74 20.2391 167.218 19.9544 166.59 19.618C165.963 19.2557 165.466 18.9452 165.074 18.6605C164.682 18.3759 164.264 17.9877 163.819 17.5478C163.375 17.082 163.035 16.6421 162.774 16.1762C162.538 15.7104 162.329 15.167 162.146 14.5459C161.963 13.9249 161.885 13.252 161.885 12.5533V8.90453C161.885 7.22246 162.329 5.79917 163.192 4.66054C164.055 3.5219 165.205 2.71968 166.59 2.25388C167.976 1.78808 169.596 1.5293 171.452 1.5293C173.308 1.5293 174.903 1.7622 176.288 2.25388C177.674 2.74556 178.798 3.54778 179.661 4.66054C180.523 5.79917 180.968 7.19658 180.968 8.90453V13.0968H174.589V9.42209C174.589 8.64575 174.328 8.10231 173.831 7.79177C173.335 7.48124 172.524 7.32597 171.426 7.32597C170.328 7.32597 169.544 7.48124 169.021 7.79177C168.498 8.10231 168.237 8.64575 168.237 9.42209V12.5792C168.237 12.9674 168.289 13.2779 168.394 13.5626C168.498 13.8472 168.734 14.106 169.047 14.3648C169.387 14.6236 169.675 14.8306 169.989 14.9859C170.328 15.1411 170.799 15.3999 171.452 15.7104Z" fill="white"/>
<path d="M196.913 15.7104C197.358 15.9433 197.933 16.228 198.691 16.5644C199.449 16.9267 200.05 17.1855 200.521 17.4184C200.991 17.6254 201.54 17.9101 202.194 18.2724C202.847 18.6347 203.37 18.9452 203.762 19.2557C204.154 19.5404 204.599 19.9027 205.043 20.3685C205.514 20.8084 205.853 21.2483 206.115 21.7141C206.376 22.1541 206.585 22.6716 206.742 23.2668C206.925 23.862 207.004 24.509 207.004 25.1559V28.313C207.004 31.0561 206.115 33.0487 204.311 34.2909C202.507 35.5589 200.05 36.1799 196.913 36.1799C193.776 36.1799 191.319 35.5589 189.515 34.2909C187.712 33.0228 186.797 31.0302 186.797 28.313V24.6384H193.175V28.313C193.175 29.7104 194.43 30.4091 196.913 30.4091C199.371 30.4091 200.625 29.7104 200.625 28.313V25.1559C200.625 24.5607 200.39 24.069 199.893 23.7067C199.397 23.3445 198.429 22.7751 196.913 22.0247C196.547 21.8435 196.025 21.5847 195.319 21.2483C194.613 20.9119 194.038 20.6531 193.62 20.4461C193.201 20.2391 192.679 19.9544 192.051 19.618C191.424 19.2557 190.927 18.9452 190.535 18.6605C190.143 18.3759 189.725 17.9877 189.28 17.5478C188.836 17.082 188.496 16.6421 188.235 16.1762C187.999 15.7104 187.79 15.167 187.607 14.5459C187.424 13.9249 187.346 13.252 187.346 12.5533V8.90453C187.346 7.22246 187.79 5.79917 188.653 4.66054C189.515 3.5219 190.666 2.71968 192.051 2.25388C193.437 1.78808 195.057 1.5293 196.913 1.5293C198.769 1.5293 200.364 1.7622 201.749 2.25388C203.135 2.74556 204.259 3.54778 205.121 4.66054C205.984 5.79917 206.429 7.19658 206.429 8.90453V13.0968H200.05V9.42209C200.05 8.64575 199.789 8.10231 199.292 7.79177C198.795 7.48124 197.985 7.32597 196.887 7.32597C195.789 7.32597 195.005 7.48124 194.482 7.79177C193.959 8.10231 193.698 8.64575 193.698 9.42209V12.5792C193.698 12.9674 193.75 13.2779 193.855 13.5626C193.959 13.8472 194.195 14.106 194.508 14.3648C194.848 14.6236 195.136 14.8306 195.449 14.9859C195.789 15.1411 196.26 15.3999 196.913 15.7104Z" fill="white"/>
<path d="M215.526 3.41839C217.33 2.15037 219.787 1.5293 222.898 1.5293C226.035 1.5293 228.492 2.15037 230.296 3.41839C232.1 4.68641 232.988 6.67902 232.988 9.39621V28.313C232.988 31.0561 232.1 33.0487 230.296 34.2909C228.492 35.5589 226.035 36.1799 222.898 36.1799C219.761 36.1799 217.304 35.5589 215.526 34.2909C213.723 33.0228 212.834 31.0302 212.834 28.313V9.42209C212.834 6.67902 213.723 4.68641 215.526 3.41839ZM226.61 28.313V9.42209C226.61 8.02468 225.382 7.32597 222.898 7.32597C220.415 7.32597 219.186 8.02468 219.186 9.42209V28.313C219.186 29.7104 220.415 30.4091 222.898 30.4091C225.382 30.4091 226.61 29.7104 226.61 28.313Z" fill="white"/>
<path fill-rule="evenodd" clip-rule="evenodd" d="M31.4958 16.7969H30.1365C29.3784 14.882 29.8751 14.9337 30.6593 12.967C30.973 12.1648 30.5809 11.259 29.7705 10.9485C29.1431 10.6897 28.4373 10.8967 27.9929 11.3884L27.1564 9.26643C26.7121 8.1278 26.9735 8.5936 27.5486 7.58436L28.7772 5.46237C29.2216 4.7119 28.9601 3.75442 28.2021 3.34037C27.444 2.90044 26.4768 3.15922 26.0585 3.90969L25.4312 4.97068L24.281 2.07235C23.7843 0.804325 22.5818 0.72669 21.876 1.24425C21.3009 1.6583 21.0657 2.46052 21.3532 3.15922L21.3794 3.23686C20.5951 2.97808 19.7063 3.36625 19.3927 4.14259C19.079 4.94481 19.4711 5.85054 20.2814 6.16107L21.4578 6.62688C21.0395 6.88566 20.752 7.35146 20.7258 7.8949C20.6997 8.74887 21.3794 9.47346 22.242 9.49933L23.8627 9.55109L24.5424 11.2332L26.7643 16.7969H23.0262L22.6341 13.0446C22.5557 12.1906 21.7715 11.5696 20.9088 11.6472C20.0462 11.7248 19.4188 12.5012 19.4972 13.3552L19.5495 13.8468L17.4844 11.7248L16.3342 8.90414C16.0205 8.10192 15.184 7.97253 14.3214 7.97253C13.511 8.25719 13.0928 9.16292 13.3803 9.96514L13.7201 10.9226L12.8836 11.0261C12.021 11.1296 11.3936 11.906 11.4982 12.76C11.6027 13.6139 12.387 14.235 13.2496 14.1315C14.7396 13.9762 14.8442 13.6139 15.8375 14.6232L17.04 15.8136L17.9811 16.7711H12.8836C11.2368 16.7711 11.3413 17.004 10.0866 15.9171C9.61605 15.5289 9.22394 15.089 9.22394 14.5714V12.113C9.22394 11.259 8.51814 10.5603 7.65549 10.5603C6.79285 10.5603 6.08705 11.259 6.08705 12.113V12.2683C5.45968 11.9319 4.67546 12.0613 4.17878 12.5788C3.60369 13.1999 3.62983 14.2091 4.28335 14.7784C4.88458 15.3219 5.48582 15.8653 6.08705 16.4088C6.45302 16.8228 6.32232 16.6934 5.82565 16.7711C5.77336 16.7193 5.69494 16.6675 5.64266 16.6417L2.3228 14.5714C1.59086 14.1056 0.623651 14.3385 0.153119 15.0631C-0.291273 15.7359 -0.108287 16.6417 0.519089 17.1075C0.153119 17.3921 -0.0821456 17.8321 -0.0821456 18.3237C-0.0821456 19.1777 0.623653 19.8764 1.4863 19.8764H2.63648L2.37508 20.1352C1.77384 20.7304 1.7477 21.7396 2.37508 22.3348C2.97631 22.9559 3.9958 22.9559 4.59703 22.3348C5.11985 21.8173 5.6688 21.2997 6.19162 20.7821C7.0804 19.9023 6.81899 19.8764 8.0476 19.8764H11.5766C11.1583 20.4975 10.7401 21.7396 9.95587 21.7396H7.47251C6.60987 21.7396 5.90407 22.4383 5.90407 23.2923C5.90407 24.1463 6.60987 24.845 7.47251 24.845H8.3613L7.65549 25.9577C7.18496 26.6823 7.39409 27.6398 8.09989 28.1056C8.83183 28.5714 9.79903 28.3644 10.2696 27.6657L12.5438 24.2239C12.8052 24.638 13.2757 24.9226 13.7986 24.9226C14.6612 24.9226 15.4193 24.2757 15.4193 23.4217L15.5238 20.2387C15.55 19.747 16.3865 19.8505 16.7786 19.8505H25.6926L23.5752 21.1703C22.6602 21.7396 22.8955 21.8173 21.9283 21.4808L20.569 20.9892C19.7586 20.7045 18.8437 21.1186 18.5562 21.9208C18.2948 22.6712 18.6084 23.4735 19.3142 23.8357L15.8637 25.9836C15.1317 26.4494 14.8965 27.4069 15.367 28.1315C15.7591 28.7267 16.491 28.9855 17.1446 28.8043C17.1707 29.4254 17.5628 29.9688 18.1902 30.2017C19.0005 30.4864 19.9155 30.0723 20.203 29.2701C21.2486 26.4494 20.7258 26.6565 23.2615 25.0779L27.9407 22.2313C27.4701 23.6287 26.9996 25.0261 26.5029 26.4494C26.2415 26.8376 26.0585 27.2516 25.6403 27.4328L23.3399 28.3644C22.5295 28.7008 22.1636 29.6065 22.4773 30.4088C22.8171 31.211 23.732 31.5733 24.5424 31.2627L25.1436 31.004L24.1503 33.954C23.366 36.2313 25.771 36.8783 26.7121 35.7914C27.444 37.6028 30.4502 36.8265 29.4307 34.2387C28.0191 30.6675 28.2021 31.5215 29.3784 27.8986L29.6659 28.5714C29.9796 29.3736 30.9207 29.7618 31.7049 29.4254C32.5676 29.4254 32.8551 28.2091 32.5676 27.4069C31.339 24.0428 30.4502 24.2498 31.6265 21.1186C32.0709 19.8247 33.0904 19.1518 33.0904 18.3755C33.0904 17.4956 32.3846 16.7969 31.4958 16.7969Z" fill="white"/>
<path fill-rule="evenodd" clip-rule="evenodd" d="M241.746 16.7969H243.105C243.864 14.882 243.367 14.9337 242.583 12.967C242.269 12.1648 242.661 11.259 243.471 10.9485C244.099 10.6897 244.805 10.8967 245.249 11.3884L246.086 9.26643C246.53 8.1278 246.269 8.5936 245.693 7.58436L244.465 5.46237C244.02 4.7119 244.282 3.75442 245.04 3.34037C245.798 2.90044 246.765 3.15922 247.183 3.90969L247.811 4.97068L248.961 2.07235C249.458 0.804325 250.66 0.72669 251.366 1.24425C251.941 1.6583 252.176 2.46052 251.889 3.15922L251.863 3.23686C252.647 2.97808 253.536 3.36625 253.849 4.14259C254.163 4.94481 253.771 5.85054 252.961 6.16107L251.784 6.62688C252.202 6.88566 252.49 7.35146 252.516 7.8949C252.542 8.74887 251.863 9.47346 251 9.49933L249.379 9.55109L248.7 11.2332L246.478 16.7969H250.216L250.608 13.0446C250.686 12.1906 251.471 11.5696 252.333 11.6472C253.196 11.7248 253.823 12.5012 253.745 13.3552L253.692 13.8468L255.758 11.7248L256.908 8.90414C257.221 8.10192 258.058 7.97253 258.921 7.97253C259.731 8.25719 260.149 9.16292 259.862 9.96514L259.522 10.9226L260.358 11.0261C261.221 11.1296 261.848 11.906 261.744 12.76C261.639 13.6139 260.855 14.235 259.992 14.1315C258.502 13.9762 258.398 13.6139 257.404 14.6232L256.202 15.8136L255.261 16.7711H260.358C262.005 16.7711 261.901 17.004 263.155 15.9171C263.626 15.5289 264.018 15.089 264.018 14.5714V12.113C264.018 11.259 264.724 10.5603 265.586 10.5603C266.449 10.5603 267.155 11.259 267.155 12.113V12.2683C267.782 11.9319 268.567 12.0613 269.063 12.5788C269.638 13.1999 269.612 14.2091 268.959 14.7784C268.357 15.3219 267.756 15.8653 267.155 16.4088C266.789 16.8228 266.92 16.6934 267.416 16.7711C267.469 16.7193 267.547 16.6675 267.599 16.6417L270.919 14.5714C271.651 14.1056 272.618 14.3385 273.089 15.0631C273.533 15.7359 273.35 16.6417 272.723 17.1075C273.089 17.3921 273.324 17.8321 273.324 18.3237C273.324 19.1777 272.618 19.8764 271.756 19.8764H270.605L270.867 20.1352C271.468 20.7304 271.494 21.7396 270.867 22.3348C270.266 22.9559 269.246 22.9559 268.645 22.3348C268.122 21.8173 267.573 21.2997 267.05 20.7821C266.162 19.9023 266.423 19.8764 265.194 19.8764H261.639C262.057 20.4975 262.476 21.7396 263.26 21.7396H265.743C266.606 21.7396 267.312 22.4383 267.312 23.2923C267.312 24.1463 266.606 24.845 265.743 24.845H264.855L265.56 25.9577C266.031 26.6823 265.822 27.6398 265.116 28.1056C264.384 28.5714 263.417 28.3644 262.946 27.6657L260.672 24.2239C260.411 24.638 259.94 24.9226 259.417 24.9226C258.555 24.9226 257.797 24.2757 257.797 23.4217L257.692 20.2387C257.666 19.747 256.829 19.8505 256.437 19.8505H247.523L249.641 21.1703C250.556 21.7396 250.32 21.8173 251.288 21.4808L252.647 20.9892C253.457 20.7045 254.372 21.1186 254.66 21.9208C254.921 22.6712 254.607 23.4735 253.902 23.8357L257.352 25.9836C258.084 26.4494 258.319 27.4069 257.849 28.1315C257.457 28.7267 256.725 28.9855 256.071 28.8043C256.045 29.4254 255.653 29.9688 255.026 30.2017C254.215 30.4864 253.3 30.0723 253.013 29.2701C251.967 26.4494 252.49 26.6565 249.954 25.0779L245.327 22.2054C245.798 23.6028 246.269 25.0003 246.765 26.4235C247.027 26.8117 247.21 27.2258 247.628 27.4069L249.928 28.3385C250.739 28.6749 251.105 29.5807 250.791 30.3829C250.451 31.1851 249.536 31.5474 248.726 31.2369L248.125 30.9781L249.118 33.9282C249.902 36.2054 247.497 36.8524 246.556 35.7655C245.824 37.577 242.818 36.8006 243.837 34.2128C245.249 30.6417 245.066 31.4956 243.89 27.8727L243.602 28.5455C243.288 29.3478 242.347 29.7359 241.563 29.3995C240.701 29.3995 240.413 28.1833 240.701 27.381C241.929 24.0169 242.818 24.2239 241.642 21.0927C241.197 19.7988 240.178 19.126 240.178 18.3496C240.178 17.4956 240.884 16.7969 241.746 16.7969Z" fill="white"/>
</svg>
